<svg width="112" height="26" viewBox="0 0 112 26" fill="none" xmlns="http://www.w3.org/2000/svg">
<path d="M22.1006 22.6353C22.2983 22.4884 22.4738 22.3136 22.6217 22.1165C22.7396 21.9688 22.8354 21.8048 22.9061 21.6295C22.9194 21.6038 22.9308 21.5772 22.9403 21.5499C23.5729 20.0207 24.0189 16.3297 24.0189 12.0151C24.0189 7.70061 23.5774 4.05056 22.9494 2.50088C22.9342 2.4584 22.916 2.41516 22.8947 2.37117L22.8401 2.25966C22.8327 2.24253 22.8243 2.22582 22.8151 2.2096C22.7789 2.13976 22.7387 2.07213 22.6945 2.00707C22.6789 1.98224 22.6614 1.95865 22.6421 1.93653C22.4883 1.72622 22.3034 1.54053 22.0937 1.38584L22.0095 1.32212C21.9553 1.28497 21.8991 1.25079 21.8411 1.21972C21.686 1.13275 21.5219 1.06256 21.3519 1.01036C19.6998 0.409607 16.1362 0 12.0038 0C7.87128 0 4.29404 0.409607 2.67382 1.00126C2.50984 1.05323 2.35132 1.12106 2.2005 1.20379C2.13691 1.23811 2.07536 1.2761 2.01618 1.31757H2.00025L1.92515 1.37218C1.72101 1.5262 1.54146 1.71035 1.39266 1.91832C1.27516 2.06463 1.17935 2.22711 1.10821 2.40075L1.07863 2.47129C0.446016 3.99594 0 7.70516 0 12.0151C0 16.3251 0.455119 20.0685 1.08773 21.5726V21.5931C1.16155 21.7851 1.26439 21.9647 1.39266 22.1256C1.53693 22.3165 1.70694 22.4865 1.89784 22.6308C2.04593 22.7505 2.21076 22.8479 2.3871 22.9198L2.47584 22.9585C3.24548 23.2378 4.04262 23.4346 4.85384 23.5456C5.32261 23.6207 6.2192 23.0176 6.77444 23.0768C7.55269 23.1633 8.22854 23.9574 9.13423 24.003C10.1059 24.0553 12.4976 24.003 13.5716 24.003C14.235 24.0135 14.8983 23.9846 15.5582 23.9165C18.248 23.7458 20.4417 23.3999 21.518 22.963L21.6341 22.9129C21.802 22.8431 21.9591 22.7496 22.1006 22.6353Z" fill="url(#paint0_radial)"/>
<path d="M13.2907 17.696C13.9096 16.4694 19.9786 7.86085 19.9786 7.86085C20.1584 7.08033 19.5235 6.15643 18.7453 5.99942C17.8054 5.81054 17.125 6.63203 17.0022 7.30561C16.8793 7.97918 16.1352 14.897 12.2667 14.8674L10.5941 15.079C10.5759 15.0176 4.87098 6.65934 4.87098 6.65934C4.71976 6.30433 4.43324 6.02427 4.07488 5.88118C3.71652 5.73809 3.3159 5.74379 2.96175 5.89702C2.22446 6.21332 1.45986 7.32154 2.27908 8.42748C3.94863 10.4297 5.39816 12.6055 6.6027 14.9175C8.45276 18.4014 7.918 22.882 4.75037 23.5647C5.27376 23.6535 5.8199 23.7035 6.45024 23.7718C6.73924 23.8037 7.68133 23.8173 7.99309 23.8446C10.0411 23.988 9.32659 22.9685 9.32659 22.9685C10.4257 22.8729 12.608 19.0773 13.2907 17.696Z" fill="#640C00"/>
<path d="M10.8006 5.79157C9.43118 5.91323 8.27009 6.84817 7.85912 8.16007C7.44815 9.47198 7.86832 10.9023 8.92353 11.7835C9.97875 12.6646 11.461 12.8231 12.6786 12.1848C13.8962 11.5465 14.6092 10.2373 14.4847 8.86817C14.3163 7.00155 12.6673 5.62445 10.8006 5.79157Z" fill="#640C00"/>
<path fill-rule="evenodd" clip-rule="evenodd" d="M15.4688 10.4787C14.9415 11.7481 13.7013 12.5747 12.3268 12.5728C11.4263 12.5722 10.563 12.214 9.92666 11.5768C9.29037 10.9397 8.93324 10.0758 8.93384 9.17539C8.93385 7.80083 9.7621 6.56171 11.0322 6.03611C12.3023 5.51052 13.764 5.80202 14.7353 6.77464C15.7066 7.74725 15.9961 9.2093 15.4688 10.4787ZM18.0886 7.09777C18.4481 6.22167 19.1444 5.77565 19.9887 6.09424C20.8944 6.42647 21.1947 7.27072 20.8602 8.02849C20.8602 8.02849 17.2921 17.3425 13.3348 22.4193C12.081 24.0123 9.75761 25.6302 7.38417 25.8327C6.73465 25.9247 6.0758 25.9301 5.42488 25.8487C4.4623 25.7303 4.20516 25.0363 4.16875 24.4651C4.2484 24.8246 4.84233 25.6712 6.16672 23.9417C7.33037 22.4544 7.90987 20.5928 7.79605 18.7078C7.79605 16.232 6.3465 14.0292 6.3465 14.0292L3.03778 8.08993C2.58266 7.25024 3.24486 6.25353 4.00719 6.00321C4.76951 5.7529 5.3953 6.24898 5.76849 7.00447L9.70755 13.8085C9.71849 13.8293 9.73228 13.8484 9.74851 13.8654C10.3086 14.6107 11.1873 15.0484 12.1197 15.0464C13.8901 15.0464 15.062 13.9428 15.6423 12.723C16.598 10.7205 18.0886 7.09777 18.0886 7.09777Z" fill="url(#paint1_linear)"/>
<path d="M4.13762 23.4216C4.11085 23.8017 4.12842 24.1835 4.18996 24.5594C4.28553 24.9258 4.58332 25.0501 4.90449 25.0146C5.22567 24.979 5.48381 24.7859 5.85412 24.3751C6.22443 23.9643 6.78562 22.9706 6.78562 22.9706C6.78562 22.9706 4.88014 23.5286 4.64853 23.4985C4.41692 23.4684 4.13762 23.4216 4.13762 23.4216Z" fill="#640C00"/>
<path fill-rule="evenodd" clip-rule="evenodd" d="M32.4204 17.9888H35.1363V4.56018H32.4204V17.9888Z" fill="#1D1D1B"/>
<path fill-rule="evenodd" clip-rule="evenodd" d="M43.0774 10.8473C42.7611 10.5431 42.2736 10.3912 41.6153 10.3912C40.944 10.3912 40.4154 10.5366 40.0291 10.8283C39.6427 11.1196 39.3675 11.5185 39.2023 12.0245H43.5899C43.5653 11.5439 43.3937 11.1511 43.0774 10.8473ZM39.9537 15.3291C40.4022 15.6716 41.0327 15.8424 41.8429 15.8424C43.046 15.8424 44.0971 15.5382 44.996 14.9306L46.1539 16.9056C45.4956 17.3742 44.8062 17.7102 44.0842 17.9125C43.3622 18.1155 42.5649 18.2163 41.691 18.2163C40.8425 18.2163 40.0895 18.0958 39.4312 17.8557C38.7728 17.6156 38.2217 17.2731 37.7781 16.8303C37.3357 16.3867 36.9969 15.8549 36.7628 15.2344C36.5283 14.614 36.4106 13.9238 36.4106 13.1639C36.4106 12.4556 36.5347 11.7905 36.7809 11.17C37.0279 10.5499 37.3832 10.0117 37.845 9.55559C38.3067 9.09951 38.8635 8.73891 39.5166 8.4726C40.1681 8.20709 40.8933 8.07373 41.691 8.07373C42.3747 8.07373 43.0041 8.18533 43.5814 8.40612C44.1568 8.62812 44.6507 8.94197 45.0621 9.34648C45.4742 9.7518 45.7937 10.2365 46.0214 10.7997C46.249 11.363 46.3634 11.9935 46.3634 12.6897C46.3634 12.9178 46.3473 13.1458 46.3159 13.3734C46.2845 13.6011 46.2434 13.8162 46.1918 14.0189H39.127C39.2281 14.5507 39.5033 14.9875 39.9537 15.3291Z" fill="#1D1D1B"/>
<path fill-rule="evenodd" clip-rule="evenodd" d="M64.9964 14.2093C64.9964 14.6517 64.7945 15.0409 64.3888 15.3765C63.9839 15.7125 63.3948 15.8806 62.6233 15.8806C62.1422 15.8806 61.7901 15.7883 61.5689 15.6046C61.3465 15.4217 61.2357 15.1715 61.2357 14.8552C61.2357 14.526 61.3791 14.2633 61.6632 14.0667C61.9488 13.8701 62.4138 13.7722 63.0592 13.7722C63.7695 13.7722 64.4146 13.8419 64.9964 13.9813V14.2093ZM68.5479 15.8427C68.4722 15.8806 68.3646 15.8987 68.2252 15.8987C67.8461 15.8987 67.6563 15.6465 67.6563 15.1396V12.2146C67.6563 11.5941 67.5701 11.0305 67.3992 10.5244C67.2292 10.0176 66.9625 9.58447 66.6019 9.22308C66.2405 8.86248 65.7784 8.58086 65.2151 8.37739C64.6523 8.17514 63.9839 8.07361 63.2115 8.07361C62.4646 8.07361 61.7462 8.16305 61.0556 8.33992C60.3659 8.5176 59.6785 8.8089 58.9952 9.21421L60.0585 11.1892C61.0588 10.7078 62.1032 10.4676 63.193 10.4676C63.8006 10.4676 64.2494 10.5845 64.5411 10.8185C64.8324 11.0526 64.9778 11.3794 64.9778 11.7976V12.1014C64.6865 12.0244 64.3803 11.962 64.0564 11.9108C63.7337 11.86 63.3763 11.8351 62.9839 11.8351C62.2998 11.8351 61.6821 11.9011 61.1322 12.0345C60.5814 12.1679 60.1056 12.3669 59.7075 12.6328C59.3083 12.8987 59.0008 13.2275 58.7861 13.6199C58.5714 14.0127 58.4634 14.4688 58.4634 14.9877C58.4634 16.0389 58.7958 16.8395 59.4606 17.3906C60.1253 17.9414 61.021 18.2162 62.1475 18.2162C62.8953 18.2162 63.5471 18.0957 64.1039 17.8556C64.6616 17.6154 65.1237 17.2291 65.4907 16.6976C65.5918 17.2411 65.8263 17.6275 66.193 17.8556C66.5608 18.0836 67.01 18.1972 67.5419 18.1972C67.7953 18.1972 68.0225 18.1787 68.2252 18.1408C68.3392 18.1191 68.4407 18.084 68.5479 18.0546V15.8427Z" fill="#1D1D1B"/>
<mask id="mask0" mask-type="alpha" maskUnits="userSpaceOnUse" x="47" y="8" width="11" height="15">
<path fill-rule="evenodd" clip-rule="evenodd" d="M47.4487 8.07349H57.4015V22.6736H47.4487V8.07349Z" fill="white"/>
</mask>
<g mask="url(#mask0)">
<path fill-rule="evenodd" clip-rule="evenodd" d="M54.6658 14.513C54.1977 15.3345 53.4507 15.7471 52.4257 15.7471C51.7416 15.7471 51.2029 15.5251 50.8113 15.0831C50.4185 14.6387 50.2223 13.9933 50.2223 13.1448C50.2223 12.3353 50.4821 11.683 51.0003 11.1887C51.5204 10.6947 52.2162 10.4474 53.0893 10.4474C53.3806 10.4474 53.6622 10.4667 53.9354 10.5046C54.2073 10.5424 54.4511 10.6129 54.6658 10.7137V14.513ZM57.3701 8.90547C56.7786 8.64197 56.1239 8.4365 55.4072 8.29266C54.6852 8.14601 53.9193 8.07349 53.1086 8.07349C52.3113 8.07349 51.5712 8.19395 50.8871 8.43408C50.2025 8.67542 49.605 9.0203 49.0926 9.46953C48.5789 9.91916 48.1776 10.4607 47.8859 11.094C47.5946 11.7262 47.4487 12.4357 47.4487 13.2205C47.4487 14.0686 47.5696 14.8067 47.8105 15.4336C48.0511 16.0597 48.377 16.5787 48.788 16.9912C49.2005 17.4026 49.6772 17.7104 50.2223 17.9126C50.7662 18.1153 51.3488 18.2156 51.9692 18.2156C52.5518 18.2156 53.0643 18.1431 53.5079 17.9977C53.9515 17.8526 54.3367 17.6391 54.6658 17.3611V18.3192C54.6658 18.9529 54.3089 19.4453 53.8588 19.7869C53.41 20.1286 52.7795 20.2998 51.9692 20.2998C51.2742 20.2998 50.6365 20.1862 50.043 19.9827L49.3879 22.2571C49.5015 22.297 51.2472 22.6737 52.1215 22.6737C52.9696 22.6737 53.7227 22.5532 54.381 22.3131C55.0405 22.0726 55.5905 21.7305 56.0341 21.2873C56.4777 20.8441 57.4015 19.9767 57.4015 17.7684V8.90547H57.3701Z" fill="#1D1D1B"/>
</g>
<mask id="mask1" mask-type="alpha" maskUnits="userSpaceOnUse" x="32" y="4" width="72" height="19">
<path fill-rule="evenodd" clip-rule="evenodd" d="M32.4204 22.6737H103.838V4.22742H32.4204V22.6737Z" fill="white"/>
</mask>
<g mask="url(#mask1)">
<path fill-rule="evenodd" clip-rule="evenodd" d="M69.9536 17.9993H72.7388V4.22705H69.9536V17.9993Z" fill="#1D1D1B"/>
<path fill-rule="evenodd" clip-rule="evenodd" d="M78.9337 15.7977C79.3362 15.7977 79.7193 15.7369 80.0823 15.614C80.4477 15.4895 80.7604 15.3054 81.0295 15.0568C81.2938 14.8118 81.5054 14.5096 81.6617 14.1527C81.816 13.7945 81.895 13.3831 81.895 12.9154C81.895 12.0713 81.6718 11.4218 81.2225 10.967C80.7745 10.5113 80.1996 10.2853 79.4989 10.2853C78.5634 10.2853 77.791 10.5782 77.1798 11.1628V15.5451C77.7254 15.7147 78.31 15.7977 78.9337 15.7977ZM77.1798 8.64869C77.5558 8.38842 77.9671 8.18778 78.4071 8.04555C78.8499 7.90172 79.3362 7.83121 79.8692 7.83121C80.5577 7.83121 81.1979 7.93838 81.7882 8.15273C82.3792 8.36666 82.8873 8.68495 83.3172 9.10719C83.7443 9.52822 84.0819 10.058 84.3305 10.6938C84.5774 11.3308 84.7003 12.0769 84.7003 12.9351C84.7003 13.7647 84.5484 14.5096 84.2418 15.1648C83.9364 15.8211 83.5186 16.3763 82.986 16.8319C82.4526 17.2844 81.8329 17.6329 81.1254 17.8742C80.4175 18.1144 79.6589 18.2352 78.8551 18.2352C78.0779 18.2352 77.3217 18.1752 76.5952 18.0572C75.8692 17.9427 75.1351 17.7457 74.395 17.4738V4.22729H77.1798V8.64869Z" fill="#1D1D1B"/>
<path fill-rule="evenodd" clip-rule="evenodd" d="M92.4783 10.6761C92.1524 10.363 91.6528 10.2079 90.9763 10.2079C90.2898 10.2079 89.7475 10.3566 89.349 10.6555C88.9554 10.9549 88.6738 11.363 88.5034 11.8819H93.0033C92.9771 11.3892 92.8035 10.9867 92.4783 10.6761ZM89.2725 15.2715C89.7342 15.6233 90.3797 15.7977 91.21 15.7977C92.4453 15.7977 93.5223 15.4847 94.4457 14.8638L95.6338 16.8896C94.9582 17.3686 94.2515 17.7135 93.5114 17.921C92.77 18.1317 91.9518 18.2352 91.0541 18.2352C90.1855 18.2352 89.4131 18.1087 88.7382 17.8626C88.0618 17.6172 87.4973 17.2659 87.0425 16.811C86.5876 16.3573 86.2407 15.811 85.9998 15.1732C85.7588 14.5399 85.6392 13.8304 85.6392 13.0508C85.6392 12.3239 85.7669 11.6434 86.0215 11.0056C86.2729 10.3691 86.6355 9.81669 87.1113 9.34893C87.5848 8.88278 88.1557 8.51372 88.8261 8.23935C89.4937 7.9682 90.2374 7.83081 91.0541 7.83081C91.7568 7.83081 92.403 7.94402 92.9932 8.17166C93.5847 8.3993 94.0907 8.72121 94.5126 9.1362C94.9368 9.55159 95.264 10.0476 95.4969 10.6269C95.7321 11.2035 95.8486 11.8509 95.8486 12.5645C95.8486 12.7977 95.8313 13.0318 95.799 13.2655C95.7668 13.4996 95.7245 13.72 95.6717 13.9283H88.424C88.5287 14.4742 88.8116 14.9198 89.2725 15.2715Z" fill="#1D1D1B"/>
<path fill-rule="evenodd" clip-rule="evenodd" d="M102.903 15.1945C102.67 15.3488 102.413 15.4733 102.134 15.5652C101.854 15.657 101.547 15.6989 101.209 15.6989C100.793 15.6989 100.464 15.5914 100.226 15.3706C99.9851 15.1486 99.8654 14.8315 99.8654 14.4149V10.5378H103.158V8.06444H99.8654V5.45447H97.079V8.06444H95.4517V8.36983C96.8924 9.40689 97.079 11.3597 97.079 11.9178C97.079 12.4737 97.0846 14.5906 97.0846 14.5906C97.1193 15.7815 97.4255 16.6788 98.0145 17.2787C98.6362 17.9153 99.5193 18.2352 100.662 18.2352C101.286 18.2352 101.852 18.1619 102.358 18.0196C102.865 17.8774 103.357 17.6478 103.838 17.3379L102.903 15.1945Z" fill="#1D1D1B"/>
</g>
<defs>
<radialGradient id="paint0_radial" cx="0" cy="0" r="1" gradientUnits="userSpaceOnUse" gradientTransform="translate(12.0094 12.5371) scale(14.4244 14.4288)">
<stop stop-color="#E94E1B"/>
<stop offset="0.46" stop-color="#E9491A"/>
<stop offset="0.6" stop-color="#E73C19"/>
<stop offset="0.75" stop-color="#E62516"/>
<stop offset="1" stop-color="#E30613"/>
</radialGradient>
<linearGradient id="paint1_linear" x1="3.66558" y1="8.02362" x2="1.57534" y2="26.078" gradientUnits="userSpaceOnUse">
<stop offset="0.31" stop-color="white"/>
<stop offset="0.47" stop-color="#FAFAFA"/>
<stop offset="0.64" stop-color="#EDEDED"/>
<stop offset="0.83" stop-color="#DADADA"/>
<stop offset="1" stop-color="#C6C6C6"/>
</linearGradient>
</defs>
</svg>
